# xmcd
#
# Track frame offsets:
#	150
#	15509
#	30669
#	44145
#	58907
#	77810
#	92227
#	108728
#	122203
#	135803
#	156475
#
# Disc length: 2318 seconds
#
# Revision: 2
# Processed by: cddbd v1.5.2PL0 Copyright (c) Steve Scherf et al.
# Submitted via: EasyCDDAExtractor 11.9.9.666
#
DISCID=96090c0b
DTITLE=Solomon Coal - From the Metropolis of the Owl
DYEAR=2007
DGENRE=Hip-Hop
TTITLE0=Got You (feat. Tara Ellis)
TTITLE1=Need (feat. Raashan Ahmad)
TTITLE2=Sun the Moon
TTITLE3=Future Lights (feat. Iodine)
TTITLE4=Saturday (feat. Destiny Wolfe)
TTITLE5=Show Then Tell
TTITLE6=On the Radio (feat. Reyloo and J-Bird)
TTITLE7=Watch Thee Offenders
TTITLE8=Nahjuantes (feat. Destiny Wolfe)
TTITLE9=Who We Are
TTITLE10=If One
EXTD=
EXTT0=
EXTT1=
EXTT2=
EXTT3=
EXTT4=
EXTT5=
EXTT6=
EXTT7=
EXTT8=
EXTT9=
EXTT10=
PLAYORDER=
